<svg fill="#43477D" xmlns:dc="http://purl.org/dc/elements/1.1/" xmlns:cc="http://creativecommons.org/ns#" xmlns:rdf="http://www.w3.org/1999/02/22-rdf-syntax-ns#" xmlns:svg="http://www.w3.org/2000/svg" xmlns="http://www.w3.org/2000/svg" xmlns:sodipodi="http://sodipodi.sourceforge.net/DTD/sodipodi-0.dtd" xmlns:inkscape="http://www.inkscape.org/namespaces/inkscape" version="1.1" x="0px" y="0px" viewBox="0 0 100 100"><g transform="translate(0,-952.36218)"><path style="color:#000000;enable-background:accumulate;" d="m 27,958.36227 c -4.709,0 -9,4.291 -9,9 0,4.709 4.291,9 9,9 l 55,0 c -4.709,0 -9,-4.291 -9,-9 0,-4.709 4.291,-9 9,-9 z m -9,17.21875 0,63.78108 c 0,3.878 3.122,7 7,7 l 57,0 0,-65.99983 -55,0 c -3.6484,0 -6.9825,-1.91832 -9,-4.78125 z m 14,18.78127 36,0 c 1.1046,0 2,0.8954 2,2 0,1.1046 -0.8954,2 -2,2 l -36,0 c -1.1045,0 -2,-0.8954 -2,-2 0,-1.1046 0.8955,-2 2,-2 z m 0,16.00001 36,0 c 1.1046,0 2,0.8954 2,2 0,1.1046 -0.8954,2 -2,2 l -36,0 c -1.1045,0 -2,-0.8954 -2,-2 0,-1.1046 0.8955,-2 2,-2 z m 0,16 36,0 c 1.1046,0 2,0.8954 2,2 0,1.1046 -0.8954,2 -2,2 l -36,0 c -1.1045,0 -2,-0.8954 -2,-2 0,-1.1046 0.8955,-2 2,-2 z" fill="#43477D" stroke="none" marker="none" visibility="visible" display="inline" overflow="visible"></path></g></svg>